<svg width="900" height="879" viewBox="0 0 900 879" fill="none" xmlns="http://www.w3.org/2000/svg">
<path d="M892.536 877.586C892.536 877.891 692.712 878.114 446.288 878.114C199.864 878.114 0 877.891 0 877.586C0 877.28 199.783 877.057 446.288 877.057C692.793 877.057 892.536 877.301 892.536 877.586Z" fill="#263238"/>
<path d="M554.844 461.239H396.718L366.513 505.988L337.04 461.239H181.721C179.359 461.239 177.021 460.774 174.84 459.87C172.658 458.966 170.676 457.642 169.006 455.972C167.337 454.303 166.012 452.32 165.108 450.139C164.205 447.957 163.74 445.619 163.74 443.258V135.284C163.737 132.921 164.2 130.581 165.103 128.397C166.005 126.213 167.329 124.229 168.999 122.557C170.669 120.885 172.652 119.559 174.835 118.654C177.018 117.749 179.358 117.283 181.721 117.283H554.844C557.207 117.283 559.547 117.749 561.73 118.654C563.913 119.559 565.896 120.885 567.566 122.557C569.236 124.229 570.56 126.213 571.462 128.397C572.365 130.581 572.828 132.921 572.825 135.284V443.339C572.804 448.094 570.9 452.647 567.53 456.001C564.16 459.356 559.599 461.239 554.844 461.239Z" fill="#FAFAFA"/>
<path d="M554.844 461.238H555.821C556.8 461.175 557.773 461.032 558.729 460.811C561.991 460.074 564.98 458.437 567.357 456.085C569.734 453.733 571.403 450.762 572.174 447.508C572.361 446.737 572.504 445.956 572.601 445.169C572.601 444.355 572.703 443.521 572.601 442.667C572.601 440.958 572.601 439.168 572.601 437.317C572.601 429.886 572.601 421.35 572.601 411.709C572.601 373.062 572.5 317.37 572.439 248.477C572.439 214 572.439 176.269 572.439 135.751C572.525 131.957 571.384 128.236 569.185 125.142C566.986 122.049 563.847 119.749 560.234 118.584C557.779 117.837 555.207 117.548 552.647 117.729H454.2H311.228H182.31C181.476 117.729 180.703 117.729 179.91 117.729C179.122 117.823 178.341 117.965 177.571 118.157C174.461 118.905 171.619 120.5 169.36 122.766C167.102 125.032 165.515 127.879 164.777 130.991C164.257 133.869 164.087 136.799 164.268 139.717V269.896C164.268 314.95 164.268 358.6 164.268 400.44V439.087C164.15 441.587 164.259 444.092 164.594 446.572C165.065 448.968 166.033 451.24 167.434 453.24C168.835 455.24 170.639 456.925 172.73 458.187C174.808 459.444 177.132 460.242 179.544 460.526C181.924 460.77 184.466 460.627 186.907 460.668H230.456H337.04H337.263L337.385 460.851L366.818 505.6H366.208L396.454 460.851L396.555 460.709H396.718L513.391 461.238L396.82 461.38L397.084 461.238C387.728 475.178 377.673 490.128 366.92 506.088L366.614 506.556L366.309 506.088L336.816 461.339L337.141 461.522H230.558H186.968C184.487 461.522 182.066 461.624 179.503 461.38C175.676 460.942 172.081 459.322 169.219 456.744C166.357 454.166 164.37 450.76 163.536 446.999C163.173 444.461 163.05 441.893 163.17 439.331V400.684C163.17 358.844 163.17 315.255 163.17 270.14V135.446C163.122 131.271 164.493 127.202 167.057 123.907C169.621 120.611 173.227 118.283 177.286 117.302C178.103 117.102 178.932 116.953 179.768 116.855C180.602 116.855 181.456 116.855 182.27 116.855H552.668C555.325 116.683 557.992 116.993 560.54 117.77C563.069 118.625 565.386 120.012 567.333 121.838C569.274 123.619 570.807 125.798 571.828 128.225C572.82 130.644 573.312 133.239 573.273 135.853C573.273 176.371 573.273 214.102 573.273 248.579C573.273 317.472 573.151 373.245 573.11 411.811C573.11 421.452 573.11 429.988 573.11 437.419C573.11 439.27 573.11 441.06 573.11 442.769C573.11 443.623 573.11 444.477 573.008 445.291C572.921 446.093 572.778 446.888 572.581 447.671C571.784 450.958 570.077 453.955 567.656 456.319C565.235 458.682 562.198 460.316 558.892 461.034C557.935 461.235 556.961 461.351 555.983 461.38L554.844 461.238Z" fill="#263238"/>
<path d="M322.679 306.652C322.679 310.721 319.689 313.121 314.889 313.121H311.288V318.063H307.22V300.144H314.97C319.689 300.225 322.679 302.706 322.679 306.652ZM318.468 306.652C318.468 304.618 317.207 303.52 314.665 303.52H311.288V309.744H314.665C317.207 309.826 318.468 308.687 318.468 306.652Z" fill="#263238"/>
<path d="M337.386 310.291V318.143H333.643V316.434C333.179 317.098 332.545 317.625 331.809 317.961C331.072 318.298 330.258 318.431 329.453 318.346C326.239 318.346 324.307 316.556 324.307 314.176C324.307 311.796 326.036 310.108 330.226 310.108H333.399C333.399 308.4 332.382 307.403 330.226 307.403C328.8 307.391 327.409 307.841 326.259 308.684L324.815 305.898C326.586 304.766 328.653 304.186 330.755 304.23C334.965 304.169 337.386 306.122 337.386 310.291ZM333.317 313.79V312.386H330.571C328.7 312.386 328.11 313.078 328.11 313.993C328.11 314.909 328.965 315.661 330.368 315.661C331.008 315.722 331.651 315.572 332.198 315.235C332.745 314.897 333.167 314.389 333.399 313.79H333.317Z" fill="#263238"/>
<path d="M339.663 316.822L340.985 313.954C342.439 314.813 344.096 315.27 345.786 315.276C347.616 315.276 348.308 314.808 348.308 314.035C348.308 311.777 339.989 314.035 339.989 308.584C339.989 305.98 342.348 304.129 346.375 304.129C348.209 304.101 350.022 304.512 351.664 305.329L350.342 308.177C349.102 307.477 347.697 307.126 346.274 307.16C344.484 307.16 343.711 307.709 343.711 308.421C343.711 310.781 352.03 308.421 352.03 313.933C352.03 316.496 349.65 318.307 345.521 318.307C343.474 318.321 341.456 317.81 339.663 316.822Z" fill="#263238"/>
<path d="M353.251 316.822L354.574 313.954C356.022 314.81 357.671 315.266 359.354 315.276C361.205 315.276 361.896 314.808 361.896 314.035C361.896 311.778 353.577 314.035 353.577 308.584C353.577 305.981 355.936 304.13 359.943 304.13C361.784 304.099 363.604 304.51 365.252 305.33L363.91 308.177C362.702 307.491 361.333 307.14 359.943 307.16C358.153 307.16 357.401 307.709 357.401 308.421C357.401 310.781 365.7 308.421 365.7 313.934C365.7 316.497 363.32 318.307 359.211 318.307C357.129 318.342 355.074 317.83 353.251 316.822Z" fill="#263238"/>
<path d="M390.006 304.372L385.022 318.142H381.178L378.086 309.6L374.893 318.142H371.008L366.045 304.372H369.808L373.062 313.688L376.439 304.372H379.815L383.09 313.688L386.446 304.372H390.006Z" fill="#263238"/>
<path d="M390.474 311.266C390.376 309.752 390.735 308.244 391.505 306.937C392.275 305.631 393.419 304.585 394.79 303.937C396.162 303.289 397.696 303.067 399.194 303.302C400.693 303.536 402.086 304.216 403.194 305.252C404.301 306.288 405.072 307.633 405.406 309.113C405.74 310.592 405.621 312.138 405.065 313.549C404.51 314.96 403.543 316.172 402.29 317.027C401.038 317.882 399.557 318.341 398.04 318.344C397.071 318.411 396.097 318.278 395.181 317.952C394.265 317.627 393.426 317.116 392.717 316.452C392.007 315.788 391.441 314.984 391.055 314.092C390.669 313.2 390.471 312.238 390.474 311.266ZM401.559 311.266C401.508 310.578 401.257 309.921 400.837 309.375C400.417 308.828 399.847 308.416 399.196 308.189C398.546 307.962 397.843 307.929 397.174 308.096C396.505 308.263 395.9 308.621 395.432 309.127C394.964 309.633 394.654 310.264 394.54 310.944C394.425 311.623 394.512 312.322 394.789 312.953C395.066 313.584 395.521 314.12 396.099 314.496C396.676 314.872 397.351 315.071 398.04 315.069C398.525 315.068 399.004 314.967 399.447 314.771C399.89 314.575 400.288 314.289 400.615 313.932C400.942 313.574 401.191 313.153 401.347 312.694C401.502 312.235 401.561 311.748 401.519 311.266H401.559Z" fill="#263238"/>
<path d="M416.794 304.17V307.852H415.899C415.392 307.804 414.881 307.872 414.404 308.05C413.927 308.227 413.496 308.511 413.144 308.879C412.792 309.246 412.527 309.689 412.37 310.173C412.214 310.658 412.168 311.172 412.238 311.676V318.185H408.17V304.414H411.994V306.225C412.563 305.514 413.299 304.954 414.136 304.596C414.974 304.237 415.887 304.091 416.794 304.17Z" fill="#263238"/>
<path d="M433.067 299.166V318.143H429.263V316.557C428.73 317.161 428.067 317.636 427.324 317.946C426.58 318.257 425.775 318.393 424.971 318.346C423.083 318.346 421.272 317.596 419.937 316.261C418.602 314.926 417.852 313.115 417.852 311.227C417.852 309.339 418.602 307.528 419.937 306.193C421.272 304.858 423.083 304.108 424.971 304.108C425.729 304.078 426.485 304.212 427.187 304.499C427.889 304.787 428.52 305.223 429.039 305.776V299.104L433.067 299.166ZM429.161 311.37C429.11 310.683 428.859 310.025 428.439 309.479C428.019 308.932 427.449 308.52 426.798 308.293C426.148 308.066 425.445 308.033 424.776 308.2C424.108 308.367 423.502 308.725 423.034 309.231C422.566 309.737 422.256 310.368 422.142 311.048C422.027 311.727 422.114 312.426 422.391 313.057C422.668 313.688 423.123 314.224 423.701 314.6C424.278 314.976 424.953 315.175 425.642 315.173C426.14 315.18 426.633 315.08 427.089 314.88C427.545 314.681 427.953 314.387 428.286 314.017C428.619 313.647 428.869 313.211 429.02 312.737C429.171 312.263 429.219 311.762 429.161 311.268V311.37Z" fill="#263238"/>
<path d="M267.984 349.04H242.07C235.914 349.04 230.924 354.031 230.924 360.187V404.59C230.924 410.746 235.914 415.736 242.07 415.736H267.984C274.14 415.736 279.131 410.746 279.131 404.59V360.187C279.131 354.031 274.14 349.04 267.984 349.04Z" fill="#EBEBEB"/>
<path d="M381.748 349.04H357.136C350.98 349.04 345.989 354.031 345.989 360.187V404.59C345.989 410.746 350.98 415.736 357.136 415.736H381.748C387.904 415.736 392.894 410.746 392.894 404.59V360.187C392.894 354.031 387.904 349.04 381.748 349.04Z" fill="#EBEBEB"/>
<path d="M325.364 349.04H300.752C294.596 349.04 289.605 354.031 289.605 360.187V404.59C289.605 410.746 294.596 415.736 300.752 415.736H325.364C331.52 415.736 336.51 410.746 336.51 404.59V360.187C336.51 354.031 331.52 349.04 325.364 349.04Z" fill="#EBEBEB"/>
<path d="M439.189 349.04H413.255C407.099 349.04 402.108 354.031 402.108 360.187V404.59C402.108 410.746 407.099 415.736 413.255 415.736H439.189C445.345 415.736 450.335 410.746 450.335 404.59V360.187C450.335 354.031 445.345 349.04 439.189 349.04Z" fill="#EBEBEB"/>
<path d="M494.495 349.04H468.561C462.405 349.04 457.414 354.031 457.414 360.187V404.59C457.414 410.746 462.405 415.736 468.561 415.736H494.495C500.651 415.736 505.641 410.746 505.641 404.59V360.187C505.641 354.031 500.651 349.04 494.495 349.04Z" fill="#EBEBEB"/>
<path d="M261.17 380.627L266.316 383.414L263.997 387.299L258.811 384.207V389.943H254.376V384.166L249.169 387.299L246.891 383.414L252.058 380.627L246.891 377.779L249.169 373.894L254.376 377.027V371.25H258.811V377.027L263.997 373.894L266.316 377.779L261.17 380.627Z" fill="#FFBB15"/>
<path d="M317.431 380.324L322.598 383.11L320.279 386.995L315.072 383.944L315.173 389.68H310.719V383.903L305.512 387.036L303.254 383.151L308.4 380.364L303.254 377.517L305.512 373.632L310.719 376.764V370.987H315.173L315.072 376.764L320.279 373.632L322.598 377.517L317.431 380.324Z" fill="#FFBB15"/>
<path d="M375.076 380.324L380.242 383.111L377.923 386.996L372.614 383.945L372.716 389.681H368.262V383.904L363.054 387.037L360.837 383.111L365.984 380.324L360.837 377.477L363.095 373.592L368.302 376.724V370.947H372.757L372.655 376.724L377.862 373.592L380.181 377.477L375.076 380.324Z" fill="#FFBB15"/>
<path d="M430.727 380.324L435.873 383.11L433.555 386.995L428.347 383.944L428.449 389.68H423.995V383.903L418.787 387.036L416.509 383.151L421.676 380.364L416.509 377.517L418.787 373.632L423.995 376.764V370.987H428.449L428.347 376.764L433.555 373.632L435.873 377.517L430.727 380.324Z" fill="#FFBB15"/>
<path d="M267.496 416.162H242.559C239.474 416.156 236.518 414.929 234.337 412.748C232.157 410.567 230.929 407.611 230.924 404.527V360.267C230.929 357.182 232.157 354.226 234.337 352.045C236.518 349.865 239.474 348.637 242.559 348.632H267.496C270.582 348.632 273.541 349.858 275.723 352.04C277.905 354.221 279.131 357.181 279.131 360.267V404.527C279.125 407.611 277.898 410.567 275.717 412.748C273.536 414.929 270.58 416.156 267.496 416.162ZM242.559 349.364C239.692 349.369 236.945 350.512 234.92 352.541C232.895 354.569 231.758 357.319 231.758 360.185V404.446C231.758 407.31 232.896 410.058 234.921 412.083C236.947 414.109 239.694 415.247 242.559 415.247H267.496C270.362 415.247 273.112 414.109 275.14 412.084C277.169 410.059 278.311 407.312 278.317 404.446V360.267C278.311 357.398 277.17 354.649 275.142 352.621C273.113 350.593 270.364 349.451 267.496 349.445L242.559 349.364Z" fill="#263238"/>
<path d="M325.425 416.162H300.468C297.384 416.156 294.427 414.929 292.247 412.748C290.066 410.567 288.838 407.611 288.833 404.527V360.267C288.838 357.182 290.066 354.226 292.247 352.045C294.427 349.865 297.384 348.637 300.468 348.632H325.425C328.508 348.637 331.462 349.865 333.639 352.047C335.817 354.228 337.04 357.184 337.04 360.267V404.527C337.04 407.609 335.817 410.566 333.639 412.747C331.462 414.928 328.508 416.156 325.425 416.162ZM300.468 349.364C297.601 349.369 294.854 350.512 292.829 352.541C290.804 354.569 289.667 357.319 289.667 360.185V404.446C289.667 407.31 290.805 410.058 292.83 412.083C294.856 414.109 297.603 415.247 300.468 415.247H325.425C328.29 415.247 331.037 414.109 333.063 412.083C335.088 410.058 336.226 407.31 336.226 404.446V360.267C336.226 357.4 335.089 354.651 333.064 352.622C331.039 350.593 328.292 349.451 325.425 349.445L300.468 349.364Z" fill="#263238"/>
<path d="M381.748 416.162H356.77C353.686 416.156 350.73 414.929 348.549 412.748C346.368 410.567 345.141 407.611 345.135 404.527V360.267C345.141 357.182 346.368 354.226 348.549 352.045C350.73 349.865 353.686 348.637 356.77 348.632H381.728C384.81 348.637 387.764 349.865 389.941 352.047C392.119 354.228 393.342 357.184 393.342 360.267V404.527C393.342 407.606 392.122 410.559 389.949 412.74C387.775 414.921 384.827 416.151 381.748 416.162ZM356.77 349.364C353.904 349.369 351.156 350.512 349.131 352.541C347.106 354.569 345.969 357.319 345.969 360.185V404.446C345.969 407.31 347.107 410.058 349.133 412.083C351.158 414.109 353.905 415.247 356.77 415.247H381.728C383.146 415.247 384.55 414.967 385.861 414.424C387.171 413.882 388.362 413.086 389.365 412.083C390.368 411.08 391.163 409.889 391.706 408.579C392.249 407.269 392.528 405.864 392.528 404.446V360.267C392.528 357.4 391.391 354.651 389.366 352.622C387.341 350.593 384.594 349.451 381.728 349.445L356.77 349.364Z" fill="#263238"/>
<path d="M438.701 416.162H413.723C410.639 416.156 407.682 414.929 405.502 412.748C403.321 410.567 402.093 407.611 402.088 404.527V360.267C402.088 357.181 403.314 354.221 405.496 352.04C407.678 349.858 410.637 348.632 413.723 348.632H438.66C441.744 348.637 444.7 349.865 446.881 352.045C449.062 354.226 450.289 357.182 450.295 360.267V404.527C450.289 407.604 449.067 410.554 446.895 412.734C444.723 414.913 441.778 416.146 438.701 416.162ZM413.723 349.364C410.854 349.369 408.105 350.511 406.077 352.539C404.049 354.568 402.907 357.317 402.901 360.185V404.446C402.907 407.312 404.049 410.059 406.078 412.084C408.107 414.109 410.856 415.247 413.723 415.247H438.66C441.524 415.247 444.272 414.109 446.297 412.083C448.323 410.058 449.461 407.31 449.461 404.446V360.267C449.461 357.4 448.323 354.651 446.298 352.622C444.273 350.593 441.526 349.451 438.66 349.445L413.723 349.364Z" fill="#263238"/>
<path d="M494.007 416.162H469.069C465.985 416.156 463.029 414.929 460.848 412.748C458.667 410.567 457.44 407.611 457.435 404.527V360.267C457.435 357.181 458.66 354.221 460.842 352.04C463.024 349.858 465.984 348.632 469.069 348.632H494.007C497.091 348.637 500.047 349.865 502.228 352.045C504.408 354.226 505.636 357.182 505.641 360.267V404.527C505.636 407.611 504.408 410.567 502.228 412.748C500.047 414.929 497.091 416.156 494.007 416.162ZM469.069 349.364C466.201 349.369 463.452 350.511 461.424 352.539C459.395 354.568 458.254 357.317 458.248 360.185V404.446C458.254 407.312 459.396 410.059 461.425 412.084C463.454 414.109 466.203 415.247 469.069 415.247H494.007C496.871 415.247 499.618 414.109 501.644 412.083C503.669 410.058 504.807 407.31 504.807 404.446V360.267C504.807 357.4 503.67 354.651 501.645 352.622C499.62 350.593 496.873 349.451 494.007 349.445L469.069 349.364Z" fill="#263238"/>
<path d="M494.901 398.445C490.468 398.98 485.999 399.157 481.537 398.973C477.076 399.157 472.607 398.98 468.174 398.445C472.608 397.921 477.076 397.745 481.537 397.916C485.999 397.745 490.467 397.921 494.901 398.445Z" fill="#FFBB15"/>
<path d="M370.479 279.882C400.237 279.882 424.361 255.759 424.361 226.001C424.361 196.243 400.237 172.119 370.479 172.119C340.721 172.119 316.598 196.243 316.598 226.001C316.598 255.759 340.721 279.882 370.479 279.882Z" fill="#FFBB15"/>
<path d="M361 216.198H360.105V211.174C360.043 209.755 360.268 208.339 360.768 207.01C361.268 205.681 362.032 204.467 363.014 203.441C363.995 202.415 365.175 201.598 366.48 201.041C367.786 200.483 369.191 200.195 370.611 200.195C372.031 200.195 373.436 200.483 374.742 201.041C376.048 201.598 377.227 202.415 378.209 203.441C379.191 204.467 379.954 205.681 380.454 207.01C380.954 208.339 381.179 209.755 381.117 211.174V215.242H380.222V211.174C380.282 209.874 380.078 208.576 379.622 207.358C379.165 206.14 378.467 205.027 377.569 204.087C376.671 203.146 375.591 202.397 374.395 201.886C373.199 201.374 371.912 201.11 370.611 201.11C369.31 201.11 368.023 201.374 366.827 201.886C365.632 202.397 364.552 203.146 363.653 204.087C362.755 205.027 362.057 206.14 361.601 207.358C361.145 208.576 360.941 209.874 361 211.174V216.198Z" fill="white"/>
<path d="M383.842 251.325H357.135C356.552 251.328 355.975 251.215 355.435 250.993C354.896 250.771 354.406 250.445 353.994 250.033C353.582 249.62 353.255 249.13 353.033 248.591C352.811 248.052 352.699 247.474 352.701 246.891V220.184C352.701 219.008 353.168 217.88 354 217.049C354.832 216.217 355.959 215.75 357.135 215.75H383.842C385.017 215.755 386.141 216.224 386.972 217.055C387.802 217.885 388.271 219.01 388.277 220.184V246.891C388.277 248.067 387.809 249.195 386.978 250.027C386.146 250.858 385.018 251.325 383.842 251.325ZM357.135 216.645C356.197 216.645 355.297 217.018 354.633 217.682C353.969 218.345 353.596 219.246 353.596 220.184V246.891C353.596 247.356 353.688 247.816 353.866 248.246C354.043 248.675 354.304 249.065 354.633 249.394C354.961 249.722 355.352 249.983 355.781 250.161C356.21 250.339 356.671 250.43 357.135 250.43H383.842C384.307 250.43 384.767 250.339 385.197 250.161C385.626 249.983 386.016 249.722 386.345 249.394C386.674 249.065 386.934 248.675 387.112 248.246C387.29 247.816 387.382 247.356 387.382 246.891V220.184C387.382 219.246 387.009 218.345 386.345 217.682C385.681 217.018 384.781 216.645 383.842 216.645H357.135Z" fill="white"/>
<path d="M370.621 234.423C369.787 234.427 368.97 234.183 368.275 233.722C367.579 233.261 367.036 232.603 366.715 231.833C366.394 231.063 366.309 230.215 366.471 229.396C366.632 228.577 367.034 227.825 367.624 227.235C368.214 226.645 368.966 226.244 369.785 226.082C370.603 225.92 371.452 226.005 372.222 226.326C372.992 226.648 373.649 227.19 374.11 227.886C374.571 228.581 374.815 229.398 374.811 230.233C374.806 231.342 374.363 232.405 373.578 233.19C372.794 233.974 371.731 234.417 370.621 234.423ZM370.621 226.938C369.97 226.938 369.333 227.131 368.791 227.493C368.249 227.855 367.826 228.37 367.577 228.972C367.328 229.574 367.262 230.236 367.39 230.876C367.517 231.515 367.831 232.102 368.291 232.563C368.752 233.024 369.339 233.337 369.979 233.465C370.618 233.592 371.28 233.526 371.882 233.277C372.484 233.028 372.999 232.605 373.361 232.063C373.723 231.521 373.916 230.884 373.916 230.233C373.919 229.799 373.836 229.37 373.671 228.969C373.507 228.568 373.264 228.203 372.957 227.897C372.651 227.59 372.287 227.348 371.886 227.183C371.485 227.018 371.055 226.935 370.621 226.938Z" fill="white"/>
<path d="M370.927 233.771H370.032V241.337H370.927V233.771Z" fill="white"/>
<path d="M552.912 151.408C554.887 142.433 549.212 133.557 540.238 131.582C531.264 129.607 522.387 135.282 520.413 144.256C518.438 153.231 524.112 162.107 533.087 164.082C542.061 166.056 550.937 160.382 552.912 151.408Z" fill="#E0E0E0"/>
<path d="M531.31 153.751C531.241 153.75 531.173 153.735 531.111 153.707C531.048 153.679 530.991 153.638 530.944 153.588C530.896 153.542 530.857 153.487 530.83 153.426C530.804 153.365 530.79 153.299 530.79 153.232C530.79 153.165 530.804 153.099 530.83 153.038C530.857 152.977 530.896 152.922 530.944 152.876L541.725 142.096C541.77 142.047 541.825 142.008 541.887 141.982C541.948 141.955 542.014 141.941 542.081 141.941C542.147 141.941 542.213 141.955 542.274 141.982C542.336 142.008 542.391 142.047 542.436 142.096C542.486 142.143 542.525 142.2 542.552 142.263C542.578 142.326 542.592 142.393 542.592 142.462C542.592 142.53 542.578 142.598 542.552 142.661C542.525 142.723 542.486 142.78 542.436 142.828L531.656 153.588C531.566 153.685 531.442 153.743 531.31 153.751Z" fill="white"/>
<path d="M542.071 153.751C541.939 153.743 541.815 153.685 541.725 153.588L530.945 142.828C530.895 142.78 530.856 142.723 530.83 142.661C530.803 142.598 530.789 142.53 530.789 142.462C530.789 142.393 530.803 142.326 530.83 142.263C530.856 142.2 530.895 142.143 530.945 142.096C530.99 142.047 531.045 142.008 531.107 141.982C531.168 141.955 531.234 141.941 531.301 141.941C531.367 141.941 531.433 141.955 531.495 141.982C531.556 142.008 531.611 142.047 531.657 142.096L542.437 152.876C542.486 152.922 542.524 152.977 542.551 153.038C542.577 153.099 542.591 153.165 542.591 153.232C542.591 153.299 542.577 153.365 542.551 153.426C542.524 153.487 542.486 153.542 542.437 153.588C542.39 153.638 542.334 153.679 542.271 153.707C542.208 153.735 542.14 153.75 542.071 153.751Z" fill="white"/>
<path d="M736.954 513.25L688.076 506.172L590.299 520.634L562.86 530.336L567.722 590.34L661.735 607.65L725.156 588.855L749.137 553.565L736.954 513.25Z" fill="#FFBE9D"/>
<path d="M767.769 518.985L726.844 509.344C726.844 509.344 697.94 598.841 626.566 594.916C568.392 591.763 567.721 526.836 567.721 526.836L525.8 540.261C525.8 540.261 509.751 647.801 527.508 723.996C531.576 741.793 537.211 765.775 537.211 765.775L531.536 877.098L841.604 877.586L767.769 518.985Z" fill="#FFBB15"/>
<g opacity="0.3">
<path d="M646.214 855.498C661.306 855.112 675.219 856.393 690.312 856.027C708.415 855.579 726.66 855.132 744.539 858.061C757.923 860.278 770.982 864.346 784.366 866.462C802.672 869.35 822.178 868.333 838.451 859.525L835.827 844.331L774.033 829.401L646.214 855.498Z" fill="black"/>
</g>
<path d="M490.793 565.323C505.031 547.016 528.545 539.389 528.545 539.389L544.41 677.479L514.368 878.564L415.961 878.096C415.961 878.096 470.229 591.867 490.793 565.323Z" fill="#FFBB15"/>
<path d="M762.988 517.97C762.988 517.97 829.217 523.279 852.974 631.876C863.714 680.957 877.383 738.459 881.227 777.126C884.054 805.155 868.819 849.05 840.872 852.65L805.724 857.369C798.832 858.362 791.818 858.107 785.017 856.617C762.826 851.511 760.609 836.276 756.541 820.004L746.37 787.622C740.757 756.827 769.457 751.009 785.302 751.436L773.484 610.864L762.988 517.97Z" fill="#FFBB15"/>
<path d="M520.349 616.173C520.193 616.662 520.091 617.167 520.043 617.678C519.881 618.776 519.657 620.241 519.372 622.051C519.25 623.007 519.087 624.085 518.925 625.224C518.762 626.363 518.681 627.645 518.538 629.008C518.253 631.713 517.928 634.805 517.786 638.242C517.315 646.282 517.261 654.341 517.623 662.386C518.107 672.226 519.085 682.036 520.552 691.778C522.077 702.172 523.989 711.976 525.942 720.844C527.895 729.713 529.786 737.666 531.454 744.337C533.122 751.009 534.526 756.359 535.522 760.061C536.011 761.83 536.397 763.254 536.702 764.312C536.812 764.816 536.975 765.307 537.19 765.776C537.147 765.266 537.051 764.762 536.906 764.271C536.662 763.173 536.336 761.749 535.929 759.959C535.014 756.115 533.732 750.745 532.146 744.154C530.559 737.564 528.729 729.509 526.878 720.641C525.027 711.773 523.094 701.989 521.589 691.636C520.084 681.282 519.026 671.295 518.579 662.325C518.131 653.355 518.111 645.117 518.579 638.283C518.681 634.845 518.945 631.774 519.169 629.048C519.264 627.692 519.365 626.431 519.474 625.265C519.596 624.126 519.718 623.068 519.82 622.092C520.023 620.282 520.186 618.817 520.288 617.698C520.358 617.193 520.378 616.682 520.349 616.173Z" fill="#263238"/>
<path d="M837.272 789.474C837.227 788.53 837.07 787.594 836.804 786.687C836.155 784.239 835.298 781.85 834.241 779.548C830.766 771.87 825.357 765.227 818.543 760.267C811.729 755.307 803.745 752.202 795.371 751.254C792.854 750.948 790.315 750.866 787.784 751.01C786.852 751.021 785.924 751.137 785.018 751.356C788.417 751.376 791.812 751.586 795.188 751.987C803.372 753.123 811.149 756.26 817.83 761.121C824.511 765.982 829.889 772.416 833.489 779.853C834.917 782.992 836.18 786.203 837.272 789.474Z" fill="#263238"/>
<path d="M821.975 735.407C821.45 735.275 820.908 735.227 820.368 735.265C818.907 735.238 817.447 735.306 815.995 735.468C811.193 735.956 806.486 737.134 802.021 738.967C797.56 740.819 793.383 743.291 789.613 746.309C788.476 747.218 787.396 748.196 786.379 749.238C785.667 749.991 785.301 750.418 785.342 750.479C785.383 750.54 787.132 749.055 790.081 746.899C797.752 741.266 806.683 737.594 816.097 736.2C819.697 735.671 821.975 735.59 821.975 735.407Z" fill="#263238"/>
<path d="M753.408 594.917C753.557 593.955 753.611 592.981 753.571 592.008C753.571 590.137 753.693 587.452 753.917 584.136C755.103 566.796 759.853 549.887 767.87 534.465C769.396 531.516 770.718 529.156 771.674 527.57C772.21 526.761 772.666 525.903 773.037 525.007C772.388 525.73 771.809 526.513 771.308 527.346C770.25 528.892 768.826 531.19 767.24 534.119C758.796 549.491 753.994 566.596 753.205 584.116C753.083 587.452 753.083 590.218 753.205 592.028C753.173 592.996 753.241 593.963 753.408 594.917Z" fill="#263238"/>
<path d="M626.566 693.424C626.61 693.814 626.706 694.197 626.851 694.563C627.095 695.295 627.4 696.414 627.95 697.756C629.432 701.643 631.278 705.382 633.462 708.923C640.68 720.731 651.158 730.2 663.633 736.19C676.109 742.181 690.05 744.437 703.778 742.688C707.919 742.173 712.004 741.281 715.983 740.023C717.386 739.596 718.444 739.128 719.156 738.864C719.529 738.743 719.89 738.586 720.234 738.396C720.234 738.295 718.668 738.823 715.861 739.617C711.866 740.737 707.783 741.512 703.656 741.935C690.085 743.532 676.34 741.24 664.021 735.327C651.702 729.414 641.316 720.123 634.072 708.537C631.857 705.056 629.926 701.403 628.295 697.614C627.299 694.929 626.648 693.383 626.566 693.424Z" fill="#263238"/>
<path d="M766.142 846.08C766.243 845.978 767.281 847.463 769.762 849.497C773.392 852.237 777.546 854.203 781.966 855.273C788.477 856.903 795.204 857.5 801.9 857.043C809.467 856.494 817.826 855.599 826.491 854.317C834.653 853.261 842.692 851.408 850.493 848.785C853.749 847.354 856.73 845.364 859.3 842.906C861.568 840.781 863.612 838.429 865.403 835.889C868.055 832.218 870.325 828.286 872.176 824.153C872.807 822.668 873.295 821.529 873.6 820.735C873.72 820.319 873.898 819.922 874.129 819.556C874.052 819.977 873.943 820.392 873.803 820.796C873.559 821.63 873.132 822.83 872.542 824.315C870.836 828.56 868.645 832.594 866.013 836.336C864.234 838.942 862.189 841.355 859.911 843.537C857.288 846.092 854.229 848.159 850.88 849.639C843.03 852.366 834.918 854.268 826.675 855.314C817.948 856.616 809.609 857.47 801.981 857.979C795.183 858.378 788.365 857.692 781.783 855.945C777.33 854.796 773.17 852.716 769.579 849.842C768.633 849.026 767.768 848.12 766.996 847.137C766.667 846.823 766.38 846.467 766.142 846.08Z" fill="#263238"/>
<path d="M755.218 629.494C755.482 629.494 762.479 656.526 770.799 690.047C779.118 723.568 785.647 750.784 785.362 750.865C785.078 750.947 778.101 723.812 769.782 690.291C761.462 656.771 754.933 629.555 755.218 629.494Z" fill="#263238"/>
<path d="M746.777 782.618C746.56 781.891 746.444 781.138 746.431 780.38C746.228 778.353 746.18 776.313 746.289 774.278C746.522 771.174 747.551 768.182 749.279 765.593C750.257 764.053 751.396 762.621 752.676 761.321C754.093 759.967 755.671 758.792 757.375 757.823C763.399 754.662 769.921 752.557 776.657 751.599C778.68 751.307 780.717 751.131 782.759 751.07C783.508 750.959 784.269 750.959 785.017 751.07C785.017 751.232 781.824 751.354 776.759 752.27C770.173 753.404 763.805 755.559 757.883 758.657C756.251 759.585 754.735 760.705 753.368 761.992C752.133 763.232 751.029 764.595 750.072 766.06C748.388 768.473 747.339 771.271 747.021 774.197C746.841 776.225 746.78 778.263 746.838 780.299C746.908 781.071 746.887 781.85 746.777 782.618Z" fill="#263238"/>
<g opacity="0.3">
<path d="M523.399 707.357C506.496 678.738 506.13 641.555 520.876 611.757C516.154 643.506 517.174 675.846 523.887 707.235" fill="black"/>
</g>
<path d="M550.35 835.726C555.679 825.677 597.235 799.113 597.235 799.113L585.986 796.509L573.558 801.757C572.618 805.97 570.795 809.936 568.209 813.392C563.653 819.901 555.903 813.168 555.903 813.168L561.151 788.007L585.722 773.22C585.722 773.22 608.829 776.759 612.571 778.549L622.416 787.56C626.748 790.957 639.237 804.32 642.655 804.727C646.072 805.134 753.408 781.03 753.408 781.03C768.114 792.685 775.782 815.812 778.183 832.512C778.183 832.512 780.806 840.648 777.959 845.164L646.296 855.496L618.389 863.205C610.916 866.296 603.26 868.925 595.465 871.077C586.19 873.111 579.945 870.04 579.681 864.975C579.416 859.91 586.637 859.28 586.637 859.28C592.794 857.07 598.789 854.433 604.577 851.388C608.816 848.564 612.306 844.752 614.748 840.282L604.801 841.462C604.801 841.462 583.647 856.147 575.694 860.46C567.741 864.772 566.175 856.859 565.524 854.357C564.873 851.856 589.281 828.098 589.281 828.098C589.281 828.098 566.073 842.336 561.903 845.998C557.734 849.659 551.55 850.696 550.228 848.276C548.906 845.855 545.041 845.774 550.35 835.726Z" fill="#FFBE9D"/>
<path d="M664.784 838.043C664.903 837.51 664.944 836.962 664.906 836.416C664.93 835.776 664.889 835.136 664.784 834.504C664.703 833.658 664.546 832.821 664.317 832.002C662.994 827.251 660.701 822.826 657.584 819.005C654.544 815.171 651.138 811.642 647.414 808.469C645.953 807.073 644.351 805.832 642.634 804.767C643.987 806.253 645.427 807.659 646.946 808.977C650.488 812.272 653.779 815.828 656.791 819.615C659.839 823.338 662.158 827.603 663.625 832.185C664.683 835.725 664.581 838.064 664.784 838.043Z" fill="#EB996E"/>
<path d="M598.191 798.361C600.571 798.712 603.001 798.495 605.281 797.728C607.561 796.96 609.627 795.665 611.311 793.947C611.148 793.723 608.606 795.615 604.965 796.795C601.324 797.974 598.191 798.076 598.191 798.361Z" fill="#EB996E"/>
<path d="M591.275 825.902C598.437 823.656 605.392 820.798 612.063 817.359C608.431 818.319 604.892 819.598 601.486 821.183C597.955 822.464 594.539 824.043 591.275 825.902Z" fill="#EB996E"/>
<path d="M613.568 839.977C615.442 839.548 617.258 838.9 618.979 838.045C620.826 837.508 622.602 836.75 624.267 835.787C620.386 836.182 616.686 837.631 613.568 839.977Z" fill="#EB996E"/>
<path d="M594.753 827.732C596.245 828.761 597.611 829.962 598.821 831.312C599.804 832.851 600.596 834.504 601.18 836.234C601.303 836.234 601.425 835.563 601.18 834.505C600.933 833.129 600.361 831.833 599.513 830.722C598.672 829.611 597.577 828.718 596.319 828.118C595.404 827.671 594.753 827.63 594.753 827.732Z" fill="#EB996E"/>
<path d="M584.949 812.377C584.807 812.621 586.638 813.618 587.838 815.713C588.448 817.059 588.945 818.454 589.322 819.883C589.617 819.104 589.711 818.262 589.593 817.437C589.476 816.612 589.152 815.83 588.651 815.164C587.288 812.804 584.99 812.113 584.949 812.377Z" fill="#EB996E"/>
<path d="M588.244 784.916C588.366 784.916 588.732 784.509 589.037 783.594C589.352 782.393 589.352 781.133 589.037 779.932C588.746 778.726 588.143 777.618 587.288 776.719C586.617 776.047 586.068 775.803 585.986 775.905C586.838 777.24 587.521 778.674 588.02 780.176C588.309 781.739 588.385 783.333 588.244 784.916Z" fill="#EB996E"/>
<path d="M779.037 848.928C778.902 847.923 778.847 846.91 778.874 845.897C778.874 844.921 778.874 843.741 778.732 842.358C778.589 840.975 778.61 839.408 778.406 837.7C777.643 828.673 775.708 819.784 772.65 811.257C770.932 806.599 768.851 802.083 766.426 797.751C765.205 795.717 764.148 793.907 762.927 792.259C762.358 791.425 761.788 790.632 761.239 789.859C760.69 789.086 760.1 788.395 759.551 787.825C755.178 782.435 751.821 779.689 751.984 779.526C752.837 780.069 753.628 780.703 754.344 781.418C755.26 782.186 756.129 783.008 756.947 783.879C757.903 784.876 758.981 785.913 760.141 787.337C760.69 788.029 761.28 788.72 761.89 789.371C762.5 790.022 763.049 790.937 763.66 791.771C764.921 793.419 766.019 795.331 767.26 797.283C769.773 801.636 771.909 806.195 773.647 810.912C776.733 819.503 778.588 828.487 779.159 837.598C779.301 839.327 779.281 840.914 779.322 842.297C779.362 843.68 779.322 844.88 779.322 845.856C779.331 846.887 779.236 847.916 779.037 848.928Z" fill="#263238"/>
<g opacity="0.3">
<path d="M824.213 754.852C811.866 749.753 798.266 748.512 785.2 751.292C796.431 750.774 807.543 753.778 816.985 759.882C826.426 765.987 833.725 774.888 837.861 785.342C838.797 787.864 840.668 790.854 843.353 790.468C846.038 790.081 846.77 786.969 846.77 784.467C846.791 771.307 836.356 759.916 824.213 754.852Z" fill="black"/>
</g>
<path d="M519.494 606.856C518.886 606.745 518.296 606.546 517.745 606.266C516.626 605.839 515.06 605.127 513.148 604.232C508.158 601.741 503.394 598.822 498.91 595.506C494.442 592.207 490.264 588.532 486.421 584.522C484.956 582.976 483.797 581.675 483.065 580.759C482.332 579.844 481.925 579.295 481.986 579.234C482.047 579.173 483.898 581.064 486.95 583.993C490.915 587.818 495.12 591.385 499.54 594.672C503.974 597.933 508.614 600.902 513.433 603.561C517.257 605.656 519.616 606.714 519.494 606.856Z" fill="white"/>
<path d="M754.364 614.525C754.211 614.662 754.04 614.779 753.856 614.87L752.29 615.806C750.927 616.64 748.852 617.84 746.188 619.182C738.551 623.102 730.63 626.441 722.491 629.17C710.401 633.169 697.998 636.149 685.411 638.079C669.998 640.373 654.452 641.664 638.872 641.943C622.294 642.33 606.51 641.943 592.089 641.699C579.363 641.521 566.661 640.563 554.052 638.831C545.546 637.625 537.161 635.679 528.993 633.014C526.125 632.038 523.908 631.224 522.444 630.593L520.776 629.882C520.577 629.814 520.386 629.725 520.206 629.617L520.816 629.78L522.525 630.39C524.01 630.96 526.247 631.712 529.135 632.627C537.316 635.113 545.682 636.943 554.154 638.099C566.744 639.708 579.417 640.585 592.109 640.723C606.348 640.987 622.213 641.272 638.75 640.886C654.287 640.613 669.79 639.349 685.166 637.102C697.715 635.237 710.09 632.346 722.166 628.458C730.299 625.8 738.238 622.578 745.923 618.816C748.628 617.474 750.723 616.396 752.025 615.623L753.632 614.789C754.161 614.586 754.344 614.504 754.364 614.525Z" fill="white"/>
<path d="M520.267 687.017C519.409 686.938 518.562 686.76 517.745 686.488L510.971 684.637C505.276 683.03 497.425 680.731 488.76 678.148C480.095 675.565 472.284 673.144 466.629 671.354L459.958 669.198C459.131 668.961 458.327 668.648 457.558 668.263C458.416 668.342 459.262 668.519 460.08 668.792L466.853 670.643C472.548 672.249 480.4 674.548 489.065 677.131C497.73 679.714 505.541 682.114 511.195 683.904L517.867 686.081C518.698 686.307 519.502 686.621 520.267 687.017Z" fill="white"/>
<path d="M526.186 799.438C526.186 799.702 505.845 793.885 480.827 786.42C455.808 778.955 435.691 772.67 435.773 772.385C435.854 772.1 456.113 777.918 481.132 785.403C506.15 792.888 526.267 799.153 526.186 799.438Z" fill="white"/>
<path d="M820.165 556.208C819.481 556.872 818.731 557.465 817.927 557.978C816.463 559.056 814.266 560.561 811.52 562.351C797.154 571.643 781.746 579.214 765.612 584.908C762.52 585.986 759.998 586.8 758.228 587.308C757.333 587.635 756.406 587.866 755.462 588C756.309 587.561 757.194 587.2 758.106 586.922L765.368 584.217C771.47 581.878 779.83 578.42 788.779 574.046C797.729 569.673 805.581 565.158 811.154 561.741L817.744 557.673C818.501 557.106 819.312 556.616 820.165 556.208Z" fill="white"/>
<path d="M860.683 671.781C859.624 672.382 858.523 672.906 857.388 673.347C855.252 674.303 852.079 675.565 848.133 677.009C827.506 684.521 805.85 688.829 783.918 689.782C779.708 689.965 776.311 690.006 773.951 689.925C772.736 689.952 771.519 689.897 770.311 689.762C771.515 689.58 772.733 689.498 773.951 689.518C776.291 689.518 779.687 689.315 783.878 689.03C794.772 688.338 805.61 686.931 816.32 684.819C827.022 682.669 837.574 679.829 847.909 676.317C851.875 674.954 855.069 673.795 857.266 672.961C858.369 672.471 859.512 672.076 860.683 671.781Z" fill="white"/>
<path d="M802.225 856.635C802.21 856.252 802.244 855.869 802.327 855.496C802.449 854.662 802.632 853.604 802.836 852.302C803.039 851.001 803.344 849.211 803.548 847.217C803.751 845.224 804.097 842.987 804.178 840.464C804.178 839.224 804.341 837.901 804.422 836.539C804.504 835.176 804.422 833.732 804.422 832.267C804.422 829.318 804.3 826.165 804.137 822.85C803.603 815.669 802.508 808.542 800.863 801.533C799.136 794.541 796.872 787.693 794.089 781.05C792.706 778.04 791.465 775.131 790.021 772.548C789.33 771.246 788.699 769.965 787.987 768.765L785.953 765.388C784.712 763.191 783.37 761.32 782.292 759.672C781.214 758.025 780.258 756.601 779.342 755.482L777.43 752.858C777.185 752.569 776.98 752.247 776.82 751.902C777.102 752.149 777.361 752.422 777.593 752.716L779.627 755.238C780.735 756.539 781.774 757.897 782.739 759.306C783.878 760.954 785.262 762.784 786.543 764.961L788.577 768.337C789.289 769.517 789.94 770.819 790.611 772.121C792.076 774.704 793.377 777.613 794.679 780.643C800.539 793.971 803.983 808.235 804.849 822.768C804.971 826.104 805.154 829.277 805.032 832.247C805.032 833.732 805.032 835.176 804.91 836.559C804.788 837.942 804.707 839.244 804.605 840.505C804.463 843.048 804.056 845.285 803.792 847.278C803.527 849.272 803.222 850.98 802.917 852.343C802.612 853.706 802.388 854.682 802.205 855.537C802.252 855.901 802.258 856.269 802.225 856.635Z" fill="white"/>
<path d="M880.698 794.294C880.596 794.294 880.535 792.626 880.067 789.697C879.349 785.56 877.976 781.564 875.999 777.859C873.105 772.358 869.207 767.446 864.507 763.377C858.781 758.354 852.145 754.473 844.96 751.945C837.732 749.531 830.183 748.214 822.565 748.04C816.332 747.867 810.094 748.105 803.893 748.752C798.584 749.24 794.292 749.789 791.322 750.115L787.905 750.481C787.507 750.535 787.103 750.535 786.705 750.481C787.078 750.343 787.468 750.254 787.864 750.217L791.261 749.647C794.211 749.179 798.503 748.549 803.811 747.938C810.047 747.195 816.327 746.882 822.606 747.003C830.327 747.155 837.981 748.479 845.306 750.928C852.616 753.518 859.357 757.496 865.158 762.644C869.911 766.819 873.819 771.866 876.671 777.513C878.601 781.338 879.86 785.466 880.393 789.717C880.553 790.863 880.634 792.019 880.637 793.175C880.699 793.545 880.72 793.92 880.698 794.294Z" fill="white"/>
<path d="M661.876 735.406C661.5 735.522 661.11 735.59 660.717 735.61L657.401 735.955L645.197 736.972C634.885 737.766 620.626 738.742 604.883 739.556C589.139 740.369 574.84 740.878 564.487 741C559.32 741 555.13 741 552.282 741H548.967C548.577 741.013 548.187 740.972 547.808 740.878C548.189 740.799 548.578 740.765 548.967 740.776H552.282L564.487 740.471C574.799 740.166 589.078 739.556 604.822 738.722L645.136 736.444L657.34 735.752L660.676 735.61C661.066 735.489 661.469 735.421 661.876 735.406Z" fill="white"/>
<g opacity="0.3">
<path d="M673.694 739.638C686.509 743.401 704.205 744.316 716.755 739.638C706.992 753.531 688.136 758.555 671.762 754.039C655.388 749.524 640.316 733.15 639.055 716.206C646.987 726.885 660.88 735.834 673.694 739.638Z" fill="black"/>
</g>
<path d="M777.613 726.233C777.276 726.357 776.929 726.452 776.576 726.518L773.626 727.148C771.043 727.677 767.321 728.369 762.683 729.182C753.428 730.809 740.593 732.803 726.375 734.552C712.158 736.301 699.201 737.44 689.763 738.091C685.084 738.417 681.281 738.64 678.657 738.742L675.647 738.844C675.296 738.901 674.939 738.901 674.589 738.844C674.929 738.756 675.276 738.702 675.626 738.681L678.637 738.376L689.702 737.379C699.058 736.545 711.954 735.345 726.192 733.535C740.431 731.725 753.225 729.915 762.5 728.491L773.484 726.782L776.494 726.355C776.857 726.249 777.236 726.207 777.613 726.233Z" fill="white"/>
<g opacity="0.3">
<path d="M756.296 635.678C753.082 672.494 763.11 709.025 773.056 744.621C773.499 746.832 774.43 748.917 775.782 750.723C776.481 751.625 777.453 752.277 778.552 752.581C779.652 752.885 780.821 752.826 781.884 752.411C784.996 750.825 784.569 746.309 783.694 742.973L756.052 637.203" fill="black"/>
</g>
<path d="M241.278 672.352L283.077 877.586H645.95C647.87 877.586 649.712 876.824 651.07 875.466C652.428 874.108 653.191 872.266 653.191 870.345C653.191 868.425 652.428 866.583 651.07 865.225C649.712 863.867 647.87 863.104 645.95 863.104H572.887L534.139 672.23C533.776 670.453 532.815 668.853 531.416 667.698C530.017 666.543 528.264 665.903 526.45 665.884L249.129 662.853C247.947 662.838 246.777 663.088 245.704 663.585C244.632 664.082 243.684 664.813 242.931 665.724C242.178 666.635 241.638 667.703 241.352 668.85C241.066 669.998 241.041 671.194 241.278 672.352Z" fill="#E0E0E0"/>
<path d="M241.278 672.352C241.225 672.151 241.184 671.947 241.156 671.741C241.078 671.12 241.078 670.491 241.156 669.87C241.3 668.644 241.72 667.466 242.386 666.427C243.053 665.387 243.946 664.513 245.001 663.87C245.744 663.428 246.555 663.112 247.401 662.934C248.339 662.759 249.295 662.698 250.248 662.751H256.778L273.05 662.893L377.905 663.89L451.008 664.622L491.973 665.049L513.453 665.273L524.416 665.375C525.352 665.375 526.226 665.375 527.223 665.375C528.201 665.471 529.153 665.747 530.03 666.188C531.845 667.041 533.291 668.522 534.098 670.358C534.453 671.256 534.705 672.191 534.851 673.145L535.42 675.911C535.786 677.742 536.173 679.593 536.539 681.444C537.312 685.166 538.065 688.909 538.838 692.651L543.475 715.494C546.608 730.884 549.808 746.635 553.076 762.744C559.625 794.923 566.439 828.383 573.416 862.88L572.928 862.473H644.77C645.716 862.428 646.663 862.483 647.598 862.636C649.544 863.117 651.232 864.325 652.316 866.012C652.933 866.909 653.355 867.925 653.554 868.995C653.753 870.065 653.725 871.165 653.472 872.224C653.219 873.282 652.746 874.276 652.085 875.14C651.423 876.004 650.587 876.72 649.632 877.24C648.58 877.808 647.409 878.122 646.214 878.155H551.693H453.449H283.078H282.773V877.85C269.978 814.795 259.585 763.456 252.384 727.901C248.825 710.124 246.038 696.292 244.146 686.895C243.211 682.196 242.499 678.616 242.112 676.196C241.726 673.775 241.441 672.535 241.441 672.535C241.441 672.535 241.726 673.775 242.234 676.176L244.472 686.834C246.404 696.231 249.252 710.063 252.913 727.799L283.627 877.708L283.24 877.383H453.611H646.357C647.393 877.343 648.408 877.072 649.326 876.589C650.157 876.134 650.883 875.509 651.457 874.755C652.032 874.001 652.441 873.135 652.66 872.213C652.878 871.291 652.901 870.333 652.726 869.401C652.551 868.47 652.183 867.586 651.645 866.806C650.69 865.404 649.235 864.421 647.577 864.06C646.71 863.921 645.831 863.867 644.953 863.897H572.481V863.51C565.483 828.932 558.71 795.533 552.14 763.354C548.872 747.272 545.679 731.522 542.56 716.104L537.8 692.956C537.048 689.193 536.295 685.471 535.542 681.749C535.156 679.898 534.79 678.047 534.403 676.196L533.854 673.45C533.721 672.55 533.482 671.67 533.142 670.826C532.462 669.206 531.23 667.88 529.664 667.083C528.879 666.696 528.032 666.449 527.162 666.351C526.308 666.351 525.332 666.351 524.437 666.351L513.453 666.229L491.973 665.985L451.028 665.497L377.925 664.643L273.07 663.361L256.798 663.137L250.269 663.036C249.331 662.978 248.389 663.026 247.462 663.178C246.64 663.362 245.851 663.671 245.123 664.093C244.075 664.709 243.183 665.558 242.517 666.574C241.85 667.59 241.426 668.745 241.278 669.951C241.176 670.748 241.176 671.555 241.278 672.352Z" fill="#263238"/>
<path d="M408.476 766.346C408.476 768.715 407.773 771.032 406.457 773.002C405.141 774.972 403.27 776.507 401.08 777.414C398.891 778.321 396.482 778.558 394.158 778.096C391.834 777.634 389.7 776.493 388.024 774.817C386.349 773.142 385.208 771.007 384.745 768.683C384.283 766.359 384.52 763.95 385.427 761.761C386.334 759.572 387.869 757.701 389.84 756.384C391.81 755.068 394.126 754.365 396.496 754.365C399.673 754.365 402.72 755.627 404.967 757.874C407.214 760.121 408.476 763.168 408.476 766.346Z" fill="white"/>
<path d="M241.604 674.02C241.604 674.02 242.031 674.02 242.865 674.02H260.642L312.53 674.264L483.695 675.464L508.449 675.667H514.551C515.592 675.619 516.635 675.68 517.663 675.85C518.705 676.054 519.699 676.455 520.592 677.03C522.405 678.175 523.72 679.962 524.274 682.034C524.742 684.068 525.067 685.939 525.474 687.892C528.545 703.35 531.576 718.26 534.322 732.457C539.936 760.934 545.001 786.461 549.231 807.961L559.218 858.812C560.357 864.812 561.252 869.47 561.883 872.664C562.168 874.23 562.392 875.43 562.554 876.284C562.717 877.138 562.737 877.505 562.737 877.505C562.737 877.505 562.615 877.098 562.453 876.305C562.29 875.511 562.005 874.271 561.68 872.704C561.029 869.511 560.073 864.873 558.832 858.893C556.391 846.852 552.893 829.481 548.54 808.042L533.406 732.579C530.579 718.341 527.589 703.472 524.518 688.014C524.111 686.102 523.745 684.108 523.338 682.237C522.833 680.41 521.665 678.836 520.063 677.823C519.264 677.338 518.381 677.007 517.46 676.847C516.499 676.689 515.524 676.634 514.551 676.684H508.449L483.695 676.501L312.51 674.996L260.642 674.426L246.526 674.223H242.865L241.604 674.02Z" fill="#263238"/>
<path d="M726.213 362.324C726.631 381.301 723.027 400.151 715.636 417.634C708.246 435.118 697.238 450.838 683.335 463.762C676.921 445.252 670.528 426.742 664.154 408.232" fill="#263238"/>
<path d="M581.714 251.876C598.17 242.886 618.042 241.584 636.43 245.265C654.818 248.947 671.944 257.266 688.176 266.663C697.288 271.932 706.36 277.729 712.91 285.946C724.85 300.978 736.667 325.671 737.806 344.933C738.742 360.433 732.803 399.222 726.253 413.297C720.253 426.213 692.122 436.058 678.23 439.252L550.817 290.97C553.121 282.732 557.038 275.033 562.342 268.322C567.646 261.611 574.231 256.021 581.714 251.876Z" fill="#263238"/>
<path d="M559.747 271.851L590.258 266.399C573.558 306.165 569.022 397.086 559.483 439.15C548.214 422.878 522.077 373.044 523.48 353.253C524.884 333.462 523.562 268.494 559.747 271.851Z" fill="#263238"/>
<path d="M704.592 338.038C702.944 314.809 687.892 295.771 665.335 290.014L594.978 272.074C564.589 268.799 544.289 306.185 542.296 336.695C540.079 370.603 538.716 406.361 542.682 431.665C550.636 482.516 589.608 489.106 589.608 489.106C589.608 489.106 589.608 513.311 589.608 528.159L613.142 625.61L688.991 520.816L704.694 338.689C704.755 337.794 704.592 339.197 704.592 338.038Z" fill="#FFBE9D"/>
<path d="M557.571 375.117C557.554 376.817 558.201 378.458 559.375 379.688C560.548 380.919 562.156 381.643 563.856 381.707C564.686 381.773 565.521 381.673 566.312 381.412C567.103 381.151 567.833 380.734 568.461 380.186C569.088 379.638 569.599 378.971 569.965 378.222C570.33 377.474 570.542 376.66 570.588 375.829C570.606 374.131 569.961 372.494 568.792 371.264C567.622 370.033 566.02 369.307 564.324 369.238C563.492 369.169 562.655 369.267 561.861 369.527C561.068 369.787 560.335 370.203 559.706 370.751C559.076 371.299 558.563 371.968 558.196 372.718C557.829 373.468 557.617 374.283 557.571 375.117Z" fill="#263238"/>
<path d="M550.005 356.608C550.818 357.462 555.761 353.821 562.778 353.842C569.796 353.862 574.983 357.401 575.695 356.547C576.081 356.161 575.247 354.635 573.01 352.987C569.978 350.878 566.37 349.756 562.677 349.774C559.029 349.761 555.47 350.9 552.507 353.028C550.269 354.696 549.537 356.222 550.005 356.608Z" fill="#263238"/>
<path d="M618.754 375.117C618.737 376.818 619.384 378.458 620.558 379.689C621.732 380.92 623.34 381.644 625.039 381.708C625.872 381.777 626.71 381.678 627.503 381.417C628.296 381.155 629.029 380.737 629.657 380.187C630.285 379.636 630.796 378.965 631.16 378.213C631.523 377.461 631.731 376.643 631.772 375.809C631.789 374.112 631.145 372.474 629.975 371.244C628.806 370.014 627.203 369.287 625.507 369.219C624.674 369.149 623.835 369.248 623.041 369.509C622.246 369.771 621.512 370.189 620.882 370.739C620.252 371.289 619.74 371.96 619.374 372.712C619.008 373.464 618.798 374.282 618.754 375.117Z" fill="#263238"/>
<path d="M616.579 356.61C617.392 357.464 622.355 353.823 629.373 353.843C636.39 353.864 641.577 357.403 642.289 356.549C642.655 356.162 641.841 354.637 639.604 352.989C636.586 350.899 633.003 349.778 629.332 349.775C625.685 349.77 622.128 350.908 619.162 353.03C616.924 354.698 616.192 356.223 616.579 356.61Z" fill="#263238"/>
<path d="M594.754 411.729C594.754 411.343 590.421 410.57 583.343 409.695C581.553 409.512 579.865 409.146 579.56 407.925C579.412 406.072 579.838 404.219 580.78 402.617C582.475 398.291 584.251 393.741 586.109 388.968C593.513 369.563 598.863 353.596 598.09 353.311C597.317 353.027 590.665 368.506 583.262 387.89C581.472 392.663 579.77 397.233 578.156 401.6C577.023 403.761 576.684 406.252 577.2 408.637C577.458 409.271 577.859 409.837 578.37 410.292C578.881 410.747 579.49 411.078 580.15 411.261C581.135 411.545 582.155 411.689 583.18 411.688C590.198 412.095 594.611 412.136 594.754 411.729Z" fill="#263238"/>
<path d="M657.077 470.981C657.077 470.981 640.52 505.987 589.628 501.045V489.084C613.353 489.411 636.703 483.144 657.077 470.981Z" fill="#EB996E"/>
<path d="M618.796 331.244C619.488 333.156 626.485 332.261 634.723 333.278C642.96 334.295 649.612 336.553 650.71 334.844C651.198 334.01 650.039 332.22 647.354 330.369C643.79 328.086 639.731 326.69 635.516 326.301C631.306 325.787 627.033 326.275 623.047 327.725C620.017 328.844 618.491 330.329 618.796 331.244Z" fill="#263238"/>
<path d="M552.221 335.128C553.442 336.735 558.324 335.128 564.1 335.026C569.877 334.924 574.84 336.124 575.979 334.457C576.467 333.643 575.694 332.056 573.558 330.531C570.671 328.721 567.312 327.808 563.905 327.906C560.499 328.003 557.197 329.108 554.418 331.08C552.343 332.707 551.672 334.355 552.221 335.128Z" fill="#263238"/>
<path d="M556.106 290.218C559.218 282.57 567.619 278.013 575.857 277.566C584.095 277.118 592.129 280.271 599.329 284.4C629.616 301.913 645.197 344.201 675.118 362.324C682.481 366.779 692.061 362.69 698.326 368.589C704.591 374.488 708.639 383.926 705.181 391.797C709.468 386.474 712.969 380.563 715.575 374.244C717.853 367.796 718.138 360.331 714.72 354.412C712.137 349.917 707.561 346.499 706.32 341.475C705.201 337.041 706.95 332.424 706.767 327.868C706.249 323.238 704.654 318.793 702.109 314.891C690.373 294.164 674.243 275.41 653.476 263.735C639.917 255.906 624.482 251.919 608.828 252.202C593.085 252.554 577.988 258.537 566.276 269.064C559.584 275.308 552.547 281.756 556.106 290.218Z" fill="#263238"/>
<path d="M697.594 374.893C698.123 373.428 724.667 363.868 725.013 392.06C725.358 419.459 697.716 414.069 697.655 413.275C697.594 412.482 697.594 374.893 697.594 374.893Z" fill="#FFBE9D"/>
<path d="M706.015 402.823C706.137 402.823 706.482 403.149 707.296 403.515C708.446 403.972 709.727 403.972 710.876 403.515C713.744 402.437 716.144 397.799 716.226 392.877C716.282 390.524 715.809 388.188 714.842 386.042C714.572 385.19 714.099 384.416 713.466 383.786C712.832 383.156 712.055 382.688 711.201 382.422C710.656 382.28 710.077 382.334 709.568 382.576C709.058 382.818 708.65 383.231 708.415 383.744C708.049 384.517 708.232 385.066 708.069 385.107C707.906 385.148 707.479 384.659 707.703 383.52C707.852 382.848 708.225 382.245 708.761 381.812C709.128 381.522 709.549 381.309 709.999 381.183C710.45 381.057 710.92 381.022 711.385 381.079C712.514 381.29 713.569 381.787 714.449 382.525C715.33 383.263 716.004 384.215 716.409 385.29C717.606 387.643 718.2 390.257 718.138 392.897C718.015 398.43 715.249 403.617 711.283 404.796C710.553 405.018 709.783 405.073 709.03 404.956C708.277 404.84 707.559 404.556 706.93 404.125C706.055 403.495 705.913 402.884 706.015 402.823Z" fill="#EB996E"/>
<path d="M708.496 360.818C707.922 360.561 707.37 360.255 706.849 359.903C705.791 359.231 704.164 358.336 702.252 356.974C696.85 353.026 691.885 348.512 687.444 343.508C680.984 336.02 674.947 328.177 669.361 320.015C662.633 310.013 655.074 300.596 646.763 291.864C642.328 287.501 637.431 283.634 632.159 280.331C627.219 277.319 621.932 274.915 616.415 273.171C607.051 270.167 597.203 268.959 587.39 269.612C580.768 270.015 574.23 271.294 567.944 273.415C565.687 274.107 564.019 274.859 562.859 275.307C562.283 275.571 561.684 275.782 561.069 275.937C561.611 275.613 562.175 275.327 562.758 275.083C564.389 274.303 566.067 273.623 567.782 273.049C574.062 270.712 580.644 269.287 587.329 268.818C597.258 268.006 607.25 269.111 616.761 272.073C622.386 273.806 627.776 276.224 632.81 279.273C638.16 282.625 643.132 286.547 647.638 290.969C656.001 299.787 663.583 309.315 670.297 319.446C675.822 327.608 681.77 335.477 688.115 343.02C692.468 348.033 697.297 352.611 702.537 356.689C704.408 358.092 705.974 359.048 706.971 359.78C707.507 360.084 708.017 360.431 708.496 360.818Z" fill="#455A64"/>
<path d="M709.128 407.663C710.476 407.414 711.869 407.689 713.022 408.431C714.175 409.173 715.002 410.326 715.334 411.657C715.667 412.987 715.48 414.394 714.811 415.591C714.143 416.789 713.043 417.686 711.736 418.101C710.429 418.516 709.013 418.417 707.776 417.825C706.54 417.232 705.575 416.191 705.079 414.912C704.584 413.634 704.594 412.214 705.108 410.943C705.622 409.672 706.601 408.644 707.846 408.069" fill="white"/>
<path d="M707.846 408.068C706.67 409.016 705.811 410.3 705.384 411.75C705.19 412.496 705.184 413.28 705.369 414.03C705.554 414.779 705.922 415.47 706.442 416.041C707.053 416.762 707.864 417.287 708.773 417.549C709.681 417.811 710.647 417.799 711.548 417.514C712.45 417.23 713.247 416.685 713.841 415.949C714.434 415.213 714.797 414.318 714.883 413.377C714.966 412.617 714.862 411.849 714.578 411.139C714.294 410.43 713.84 409.801 713.256 409.309C712.094 408.377 710.674 407.824 709.188 407.722C709.188 407.722 709.595 407.437 710.469 407.417C711.71 407.427 712.912 407.849 713.887 408.617C714.648 409.181 715.251 409.933 715.636 410.799C716.021 411.665 716.175 412.616 716.083 413.56C716.006 414.74 715.575 415.869 714.846 416.8C714.117 417.731 713.124 418.421 711.998 418.779C710.871 419.137 709.662 419.147 708.529 418.807C707.397 418.468 706.393 417.794 705.649 416.875C705.032 416.159 704.611 415.296 704.426 414.37C704.241 413.443 704.298 412.485 704.591 411.587C704.914 410.401 705.632 409.361 706.625 408.637C707.337 408.088 707.825 408.007 707.846 408.068Z" fill="#263238"/>
<path d="M701.601 368.567C702.028 376.053 702.374 383.945 698.916 390.596C695.458 397.247 686.711 401.783 680.243 398.061C674.934 395.03 673.348 388.216 672.433 382.175C669.849 364.723 668.649 347.088 665.903 329.656L701.601 368.567Z" fill="#263238"/>
<path d="M562.86 277.2C562.86 277.343 565.281 276.732 569.654 276.59C575.861 276.495 582.026 277.622 587.798 279.905C591.779 281.447 595.584 283.411 599.148 285.763C603.232 288.505 607.145 291.494 610.864 294.713C619.482 302.002 627.186 310.307 633.808 319.447C637.286 324.329 640.378 329.353 643.713 334.011C646.882 338.54 650.568 342.683 654.697 346.357C661.801 352.378 669.567 357.571 677.844 361.836C684.862 365.538 690.72 368.142 694.768 369.973L699.446 372.007C699.985 372.271 700.551 372.475 701.134 372.617C700.654 372.268 700.135 371.974 699.588 371.742L695.012 369.484C690.944 367.45 685.269 364.765 678.373 360.962C670.245 356.585 662.62 351.333 655.633 345.3C651.601 341.664 648.01 337.568 644.934 333.095C641.659 328.499 638.588 323.474 635.069 318.532C628.375 309.294 620.558 300.924 611.799 293.615C608.002 290.386 604.008 287.397 599.839 284.665C596.177 282.314 592.269 280.37 588.184 278.868C582.269 276.626 575.951 275.643 569.634 275.98C567.929 276.079 566.235 276.317 564.569 276.692C563.979 276.782 563.404 276.953 562.86 277.2Z" fill="#455A64"/>
<path d="M702.354 351.647C703.094 352.283 703.906 352.829 704.774 353.274L711.73 357.342L714.049 358.664C714.965 359.219 715.994 359.559 717.06 359.661C717.707 359.731 718.359 359.581 718.911 359.234C719.205 359.028 719.449 358.758 719.625 358.444C719.801 358.131 719.904 357.782 719.928 357.424C719.867 356.166 719.42 354.959 718.646 353.966L710.51 341.07L709.412 342.067C714.782 346.023 721.363 347.986 728.023 347.62C728.875 347.613 729.719 347.469 730.525 347.192C730.975 347.045 731.39 346.804 731.74 346.485C732.091 346.166 732.37 345.776 732.559 345.342C732.715 344.878 732.754 344.382 732.672 343.9C732.591 343.417 732.391 342.962 732.091 342.575C731.639 341.952 731.12 341.379 730.545 340.867C726.928 337.369 723.789 333.409 721.209 329.09C718.934 325.031 716.949 320.817 715.27 316.479C715.398 317.739 715.692 318.977 716.144 320.16C717.168 323.452 718.531 326.629 720.212 329.639C722.712 334.125 725.835 338.234 729.488 341.843C730.505 342.819 731.522 343.877 731.135 344.792C730.749 345.708 729.244 346.094 727.799 346.094C724.666 346.252 721.53 345.873 718.524 344.975C715.53 344.096 712.704 342.721 710.164 340.907L706.91 338.507L709.086 341.904L717.222 354.698C717.857 355.464 718.26 356.396 718.382 357.383C718.382 358.156 717.69 358.603 716.816 358.542C715.057 358.196 713.384 357.504 711.893 356.508L704.733 352.847C703.985 352.364 703.187 351.962 702.354 351.647Z" fill="#455A64"/>
<path d="M621.338 424.627C620.827 422.543 619.6 420.704 617.871 419.433C616.143 418.161 614.022 417.538 611.88 417.671C610.315 417.863 608.823 418.441 607.537 419.354C606.252 420.266 605.214 421.485 604.517 422.898C603.835 424.321 603.445 425.866 603.372 427.442C603.299 429.018 603.543 430.592 604.09 432.072L604.252 432.723C605.713 434.297 607.624 435.382 609.725 435.83C611.825 436.277 614.013 436.066 615.989 435.225C617.923 434.294 619.496 432.751 620.464 430.835C621.431 428.919 621.738 426.736 621.338 424.627Z" fill="#EB996E"/>
<path d="M599.146 432.926C599.146 431.869 606.245 432.194 611.594 426.377C616.944 420.559 616.517 412.952 617.513 412.952C617.961 412.952 618.815 414.701 618.734 417.915C618.588 422.068 616.982 426.037 614.198 429.123C611.512 432.091 607.778 433.899 603.784 434.167C600.855 434.289 599.085 433.415 599.146 432.926Z" fill="#263238"/>
<path d="M838.268 863.979C838.113 864 837.956 864 837.8 863.979L836.377 864.122L830.946 864.569C826.227 864.956 819.392 865.403 810.931 865.912C794.028 866.909 770.657 867.946 744.825 868.373C718.992 868.8 695.56 868.556 678.637 868.109C670.175 867.905 663.321 867.661 658.602 867.458L653.15 867.173H658.602L678.657 867.519C695.58 867.763 718.972 867.885 744.804 867.519C770.636 867.153 793.987 866.176 810.89 865.363L830.925 864.366L836.377 864.122H837.78L838.268 863.979Z" fill="white"/>
</svg>
